<?xml version="1.0" encoding="UTF-8"?>
<svg id="_图层_1" data-name="图层_1" xmlns="http://www.w3.org/2000/svg" version="1.1" viewBox="0 0 200 200">
  <!-- Generator: Adobe Illustrator 29.6.1, SVG Export Plug-In . SVG Version: 2.1.1 Build 9)  -->
  <defs>
    <style>
      .st0 {
        fill: #47a6da;
      }

      .st1 {
        fill: #0b2240;
      }
    </style>
  </defs>
  <path class="st0" d="M99.04,4.07c-31.05,0-59.16,12.53-79.58,32.81l13.23,13.23c17.03-16.9,40.46-27.33,66.35-27.33s49.34,10.44,66.36,27.36l13.23-13.23C158.22,16.61,130.1,4.07,99.04,4.07Z"/>
  <path class="st1" d="M160.53,68.97l-12.81,12.81c28.85,37.45-.78,96.77-48.68,95.26-47.69,1.5-77.4-57.35-48.97-94.88l-12.81-12.81c-39.64,48.19-1.51,127.68,61.78,125.62,63.49,2.08,101.55-77.9,61.49-126Z"/>
  <path class="st0" d="M99.02,38.96c-21.41,0-40.8,8.62-54.9,22.6l12.67,12.68c21.25-22.78,63.23-22.78,84.47.02l12.68-12.68c-14.1-13.99-33.5-22.62-54.92-22.62Z"/>
  <path class="st0" d="M99.04,73.33c-11.93,0-22.73,4.79-30.61,12.53l13.13,13.13c4.51-4.4,10.68-7.11,17.48-7.11s12.98,2.71,17.49,7.13l13.13-13.13c-7.87-7.75-18.69-12.55-30.62-12.55Z"/>
  <circle class="st0" cx="99.04" cy="116.97" r="12.37"/>
</svg>