<?xml version="1.0" encoding="UTF-8"?>
<svg id="_图层_1" data-name="图层_1" xmlns="http://www.w3.org/2000/svg" version="1.1" viewBox="0 0 200 200">
  <!-- Generator: Adobe Illustrator 29.6.1, SVG Export Plug-In . SVG Version: 2.1.1 Build 9)  -->
  <defs>
    <style>
      .st0 {
        fill: #cf6814;
      }

      .st1 {
        fill: #231815;
      }
    </style>
  </defs>
  <g>
    <path class="st0" d="M41.06,42.82c-10.36-11.16-27.3-11.16-37.66,0h0c-1.92,2.07-1.92,5.26,0,7.32l47.33,51.01L3.4,152.16c-1.92,2.07-1.92,5.26,0,7.32h0c10.36,11.16,27.3,11.16,37.66,0l54.13-58.33-54.13-58.33Z"/>
    <path class="st0" d="M158.94,42.82c10.36-11.16,27.3-11.16,37.66,0h0c1.92,2.07,1.92,5.26,0,7.32l-47.33,51.01,47.33,51.01c1.92,2.07,1.92,5.26,0,7.32h0c-10.36,11.16-27.3,11.16-37.66,0l-54.13-58.33,54.13-58.33Z"/>
  </g>
  <g>
    <path class="st1" d="M34.7,176.51c-1.34,1.44-1.34,3.8,0,5.24h0c9.86,10.59,26.63,10.59,36.49,0l28.96-31.12,29.81,32.04c9.4,10.1,25.39,10.1,34.79,0l.85-.91c1.34-1.44,1.34-3.8,0-5.24l-65.45-70.34-65.45,70.34Z"/>
    <path class="st1" d="M34.7,26.2c-1.34-1.44-1.34-3.8,0-5.24l.85-.91c9.4-10.1,25.39-10.1,34.79,0l29.81,32.04,29.81-32.04c9.4-10.1,25.39-10.1,34.79,0l.85.91c1.34,1.44,1.34,3.8,0,5.24l-65.45,70.34L34.7,26.2Z"/>
  </g>
</svg>