<?xml version="1.0" encoding="UTF-8"?>
<svg id="_图层_1" xmlns="http://www.w3.org/2000/svg" xmlns:xlink="http://www.w3.org/1999/xlink" version="1.1" viewBox="0 0 144 144">
  <!-- Generator: Adobe Illustrator 29.6.1, SVG Export Plug-In . SVG Version: 2.1.1 Build 9)  -->
  <defs>
    <style>
      .st0 {
        fill: #fff;
      }

      .st1 {
        fill: url(#_未命名的渐变_55);
      }
    </style>
    <linearGradient id="_未命名的渐变_55" data-name="未命名的渐变 55" x1="71.69" y1="143.75" x2="72.13" y2=".53" gradientUnits="userSpaceOnUse">
      <stop offset="0" stop-color="#0554cd"/>
      <stop offset=".27" stop-color="#0564d5"/>
      <stop offset=".8" stop-color="#078eea"/>
      <stop offset=".94" stop-color="#089af1"/>
    </linearGradient>
  </defs>
  <rect class="st1" x="-.09" width="144" height="144" rx="28.71" ry="28.71"/>
  <path class="st0" d="M85.39,91.91h-35.36v-48.04h43.93v38.21s15.99,4.15,23.35,11.62c.48-1.67.76-3.43.76-5.25v-40.95c0-10.39-8.42-18.81-18.81-18.81h-54.52c-10.39,0-18.81,8.42-18.81,18.81v40.95c0,10.39,8.42,18.81,18.81,18.81h54.52s-1.9-7.86-13.87-15.36h0Z"/>
  <path class="st0" d="M74.86,81.02s24.46,13.75,29.11,26.25h20s-9.29-21.07-49.11-26.25Z"/>
</svg>