<?xml version="1.0" encoding="UTF-8"?>
<svg id="Layer_1" xmlns="http://www.w3.org/2000/svg" version="1.1" viewBox="0 0 64 64">
  <!-- Generator: Adobe Illustrator 29.6.1, SVG Export Plug-In . SVG Version: 2.1.1 Build 9)  -->
  <defs>
    <style>
      .st0 {
        fill: #fff;
      }

      .st1 {
        fill: #0086e5;
      }
    </style>
  </defs>
  <rect class="st0" width="64" height="64" rx="7.98" ry="7.98"/>
  <path class="st1" d="M56,64H8c-4.4,0-8-3.6-8-8V8C0,3.6,3.6,0,8,0h48c4.4,0,8,3.6,8,8v48c0,4.4-3.6,8-8,8ZM20,26c0-2.8-2.2-5-5-5H3v4h11c.9,0,2,1.1,2,2v10c0,.9-1.1,2-2,2h-7v-10H3v14h12c2.8,0,5-2.2,5-5v-12ZM39,35c0-2.8-2.2-5-5-5h-5c-.9,0-2-1.1-2-2v-1c0-.9,1.1-2,2-2h10v-4h-11c-2.8,0-5,3.2-5,6v2c0,2.8,2.2,5,5,5h5c.9,0,2,1.1,2,2v1c0,.9-1.1,2-2,2h-10v4h11c2.8,0,5-2.2,5-5v-3ZM60,21h-4l-5,6-5-6h-4v22h4v-15l5,5,5-5v15h4v-22Z"/>
</svg>